<svg width="500" height="500" viewBox="0 0 500 500" fill="none" xmlns="http://www.w3.org/2000/svg">
<g clip-path="url(#clip0_1_2)">
<circle cx="250" cy="250" r="250" fill="#5956FF"/>
<circle cx="250" cy="250" r="215" fill="white"/>
<path d="M347.645 353.158C350.49 356.003 353.087 358.106 355.438 359.467C357.788 360.704 359.643 361.384 361.004 361.508C362.365 361.632 364.282 361.693 366.756 361.693C369.354 361.693 372.879 360.518 377.332 358.168L383.27 371.527C374.982 381.794 364.777 389.031 352.654 393.236C347.583 394.968 343.501 395.834 340.408 395.834C328.657 395.834 318.761 392.865 310.721 386.928C302.68 380.99 295.753 374.125 289.939 366.332C284.126 358.539 278.621 349.633 273.426 339.613C263.777 321.306 256.355 302.689 251.16 283.764C240.027 285.248 227.843 285.99 214.607 285.99V326.811C214.607 336.83 215.35 352.849 216.834 374.867L217.576 386C207.062 389.216 194.507 390.824 179.91 390.824C165.438 390.824 156.222 389.216 152.264 386C155.851 359.9 157.645 339.984 157.645 326.254V177.445C157.645 166.436 156.655 159.385 154.676 156.293C152.697 153.201 151.398 151.221 150.779 150.355C150.161 149.366 149.048 148.438 147.439 147.572C145.955 146.583 144.904 145.902 144.285 145.531C142.924 144.913 140.76 144.109 137.791 143.119C135.936 138.295 135.008 133.533 135.008 128.832C135.008 124.008 135.07 121.039 135.193 119.926C168.344 114.854 204.959 112.318 245.037 112.318H255.613C281.961 112.813 304.474 119.307 323.152 131.801C332.306 137.986 339.604 146.026 345.047 155.922C350.49 165.818 353.211 177.012 353.211 189.506C353.211 210.287 348.201 228.038 338.182 242.758C328.286 257.354 311.896 268.363 289.012 275.785C298.66 288.773 306.762 299.906 313.318 309.184C319.874 318.461 325.193 325.821 329.275 331.264C333.357 336.706 336.697 340.974 339.295 344.066C342.016 347.159 344.799 350.189 347.645 353.158ZM298.289 189.877C298.289 157.221 278.868 140.893 240.027 140.893C232.729 140.893 224.256 141.387 214.607 142.377V257.23C258.396 255.375 284.559 243.747 293.094 222.348C296.557 213.318 298.289 202.494 298.289 189.877Z" fill="#5956FF"/>
</g>
<defs>
<clipPath id="clip0_1_2">
<rect width="500" height="500" fill="white"/>
</clipPath>
</defs>
</svg>
